# xmcd
#
# Track frame offsets:
#	150
#	1432
#	97867
#	99149
#	128452
#	141849
#	153322
#	179956
#	211450
#	214235
#	257041
#
# Disc length: 3439 seconds
# Revision: 0
# Processed by: cddbd v1.5.2PL0 Copyright (c) Steve Scherf et al.
# Submitted via: dBpowerAMP V12.0
#
DISCID=930d6d0b
DTITLE=Hale Dwoskin - The Inner Circle Retreat 01 CD 15
DYEAR=2006
DGENRE=Speech
TTITLE0=Intro Music
TTITLE1=Release on the Person You Think You Are
TTITLE2=Assignment
TTITLE3=Wanting to Protect Your Pain
TTITLE4=What You Are Requires No Maintenance
TTITLE5=Affirmations
TTITLE6=Making Up a Story
TTITLE7=Holistic Releasing on Judgements
TTITLE8=Participant Gain
TTITLE9=Release on Wanting to Be Special
TTITLE10=Concluding Music
EXTD=
EXTT0=
EXTT1=
EXTT2=
EXTT3=
EXTT4=
EXTT5=
EXTT6=
EXTT7=
EXTT8=
EXTT9=
EXTT10=
PLAYORDER=
